<svg width="367" height="512" viewBox="0 0 367 512" fill="none" xmlns="http://www.w3.org/2000/svg">
<path d="M285.444 227.556V0H81.5556V113.778H0V512H163.111V398.222H203.889V512H367V227.556H285.444ZM81.5556 455.111H40.7778V398.222H81.5556V455.111ZM81.5556 341.333H40.7778V284.444H81.5556V341.333ZM81.5556 227.556H40.7778V170.667H81.5556V227.556ZM163.111 341.333H122.333V284.444H163.111V341.333ZM163.111 227.556H122.333V170.667H163.111V227.556ZM163.111 113.778H122.333V56.8889H163.111V113.778ZM244.667 341.333H203.889V284.444H244.667V341.333ZM244.667 227.556H203.889V170.667H244.667V227.556ZM244.667 113.778H203.889V56.8889H244.667V113.778ZM326.222 455.111H285.444V398.222H326.222V455.111ZM326.222 341.333H285.444V284.444H326.222V341.333Z" fill="#A3A3A3" fill-opacity="0.2"/>
</svg>
