<svg width="235" height="39" viewBox="0 0 235 39" fill="none" xmlns="http://www.w3.org/2000/svg">
<path d="M17.44 3.34402C19.616 3.34402 21.392 3.64802 22.768 4.25602C24.144 4.86402 25.376 5.60002 26.464 6.46402C26.848 6.75202 27.168 6.89602 27.424 6.89602C28.032 6.89602 28.432 5.93602 28.624 4.01602H29.728C29.664 5.26402 29.616 6.78402 29.584 8.57602C29.552 10.336 29.536 12.688 29.536 15.632H28.432C28.208 13.712 27.856 12.048 27.376 10.64C26.928 9.20002 26.08 7.96802 24.832 6.94402C24.064 6.20802 23.104 5.63202 21.952 5.21602C20.832 4.80002 19.696 4.59202 18.544 4.59202C16.784 4.59202 15.28 5.05602 14.032 5.98402C12.784 6.88002 11.76 8.11202 10.96 9.68002C10.16 11.248 9.56797 13.024 9.18397 15.008C8.79997 16.96 8.60797 18.992 8.60797 21.104C8.60797 26.864 9.39197 31.072 10.96 33.728C12.56 36.384 14.848 37.712 17.824 37.712C18.592 37.712 19.264 37.616 19.84 37.424C20.416 37.232 20.88 37.008 21.232 36.752C21.68 36.432 21.984 36.096 22.144 35.744C22.304 35.36 22.384 34.864 22.384 34.256V29.552C22.384 28.08 22.256 26.992 22 26.288C21.776 25.552 21.312 25.056 20.608 24.8C19.904 24.544 18.88 24.4 17.536 24.368V23.408C18.208 23.44 19.008 23.472 19.936 23.504C20.896 23.504 21.888 23.52 22.912 23.552C23.936 23.552 24.88 23.552 25.744 23.552C27.088 23.552 28.32 23.536 29.44 23.504C30.56 23.472 31.472 23.44 32.176 23.408V24.368C31.568 24.4 31.104 24.512 30.784 24.704C30.496 24.896 30.288 25.28 30.16 25.856C30.064 26.432 30.016 27.312 30.016 28.496V38H29.056C29.024 37.456 28.896 36.864 28.672 36.224C28.48 35.584 28.144 35.264 27.664 35.264C27.44 35.264 27.136 35.328 26.752 35.456C26.4 35.552 25.84 35.824 25.072 36.272C23.888 36.944 22.64 37.52 21.328 38C20.016 38.448 18.64 38.672 17.2 38.672C13.488 38.672 10.352 37.984 7.79197 36.608C5.23197 35.232 3.29596 33.264 1.98396 30.704C0.703965 28.112 0.0639648 25.008 0.0639648 21.392C0.0639648 17.744 0.799965 14.576 2.27196 11.888C3.77596 9.20002 5.82397 7.10402 8.41597 5.60002C11.04 4.09602 14.048 3.34402 17.44 3.34402Z" fill="black"/>
<path d="M58.3528 12.656V32.768C58.3528 34.208 58.5768 35.28 59.0248 35.984C59.4728 36.656 60.2728 36.992 61.4248 36.992V38C60.4328 37.904 59.4408 37.856 58.4488 37.856C57.1048 37.856 55.8568 37.904 54.7048 38C53.5528 38.096 52.4648 38.272 51.4408 38.528V34.208C50.6728 35.808 49.6008 36.96 48.2248 37.664C46.8808 38.336 45.3768 38.672 43.7128 38.672C42.3688 38.672 41.2808 38.496 40.4488 38.144C39.6168 37.792 38.9608 37.344 38.4808 36.8C37.9368 36.192 37.5528 35.392 37.3288 34.4C37.1048 33.408 36.9928 32.128 36.9928 30.56V18.416C36.9928 16.976 36.7688 15.92 36.3208 15.248C35.9048 14.544 35.1048 14.192 33.9208 14.192V13.184C34.9448 13.28 35.9368 13.328 36.8968 13.328C38.2408 13.328 39.4888 13.28 40.6408 13.184C41.8248 13.056 42.9128 12.88 43.9048 12.656V32.528C43.9048 33.328 43.9688 34.032 44.0968 34.64C44.2568 35.248 44.5448 35.728 44.9608 36.08C45.3768 36.4 45.9848 36.56 46.7848 36.56C47.6488 36.56 48.4168 36.32 49.0888 35.84C49.7928 35.36 50.3528 34.704 50.7688 33.872C51.2168 33.008 51.4408 32.048 51.4408 30.992V18.416C51.4408 16.976 51.2168 15.92 50.7688 15.248C50.3528 14.544 49.5528 14.192 48.3688 14.192V13.184C49.3928 13.28 50.3848 13.328 51.3448 13.328C52.6888 13.328 53.9368 13.28 55.0888 13.184C56.2728 13.056 57.3608 12.88 58.3528 12.656Z" fill="black"/>
<path d="M69.7982 0.800016C71.1422 0.800016 72.1982 1.13602 72.9662 1.80802C73.7662 2.44802 74.1662 3.34402 74.1662 4.49602C74.1662 5.64802 73.7662 6.56002 72.9662 7.23202C72.1982 7.87202 71.1422 8.19202 69.7982 8.19202C68.4542 8.19202 67.3822 7.87202 66.5822 7.23202C65.8142 6.56002 65.4302 5.64802 65.4302 4.49602C65.4302 3.34402 65.8142 2.44802 66.5822 1.80802C67.3822 1.13602 68.4542 0.800016 69.7982 0.800016ZM73.5422 12.656V33.536C73.5422 34.88 73.7662 35.792 74.2142 36.272C74.6942 36.752 75.4942 36.992 76.6142 36.992V38C76.0382 37.968 75.1422 37.936 73.9262 37.904C72.7102 37.84 71.4782 37.808 70.2302 37.808C68.9822 37.808 67.7182 37.84 66.4382 37.904C65.1582 37.936 64.1982 37.968 63.5582 38V36.992C64.6782 36.992 65.4622 36.752 65.9102 36.272C66.3902 35.792 66.6302 34.88 66.6302 33.536V18.416C66.6302 16.976 66.4062 15.92 65.9582 15.248C65.5422 14.544 64.7422 14.192 63.5582 14.192V13.184C64.5822 13.28 65.5742 13.328 66.5342 13.328C67.8782 13.328 69.1262 13.28 70.2782 13.184C71.4622 13.056 72.5502 12.88 73.5422 12.656Z" fill="black"/>
<path d="M88.4908 0.416016V33.536C88.4908 34.88 88.7148 35.792 89.1628 36.272C89.6428 36.752 90.4428 36.992 91.5628 36.992V38C90.9548 37.968 90.0428 37.936 88.8268 37.904C87.6108 37.84 86.3788 37.808 85.1308 37.808C83.8828 37.808 82.6188 37.84 81.3388 37.904C80.0908 37.936 79.1468 37.968 78.5068 38V36.992C79.6268 36.992 80.4108 36.752 80.8588 36.272C81.3388 35.792 81.5788 34.88 81.5788 33.536V6.17602C81.5788 4.73602 81.3548 3.68002 80.9068 3.00802C80.4908 2.30402 79.6908 1.95202 78.5068 1.95202V0.944017C79.5308 1.04002 80.5228 1.08802 81.4828 1.08802C82.7948 1.08802 84.0428 1.04002 85.2268 0.944017C86.4108 0.816017 87.4988 0.640017 88.4908 0.416016Z" fill="black"/>
<path d="M103.63 0.464015V16.976C104.43 15.312 105.502 14.16 106.846 13.52C108.222 12.848 109.758 12.512 111.454 12.512C112.83 12.512 113.934 12.688 114.766 13.04C115.598 13.36 116.254 13.808 116.734 14.384C117.278 14.992 117.662 15.776 117.886 16.736C118.142 17.696 118.27 18.992 118.27 20.624V33.536C118.27 34.88 118.494 35.792 118.942 36.272C119.422 36.752 120.222 36.992 121.342 36.992V38C120.734 37.968 119.806 37.936 118.558 37.904C117.342 37.84 116.158 37.808 115.006 37.808C113.758 37.808 112.542 37.84 111.358 37.904C110.206 37.936 109.342 37.968 108.766 38V36.992C109.726 36.992 110.398 36.752 110.782 36.272C111.166 35.792 111.358 34.88 111.358 33.536V18.608C111.358 17.808 111.278 17.12 111.118 16.544C110.958 15.936 110.654 15.472 110.206 15.152C109.79 14.8 109.182 14.624 108.382 14.624C107.518 14.624 106.718 14.864 105.982 15.344C105.278 15.792 104.702 16.432 104.254 17.264C103.838 18.096 103.63 19.056 103.63 20.144V33.536C103.63 34.88 103.822 35.792 104.206 36.272C104.59 36.752 105.262 36.992 106.222 36.992V38C105.646 37.968 104.798 37.936 103.678 37.904C102.558 37.84 101.422 37.808 100.27 37.808C99.0223 37.808 97.7583 37.84 96.4783 37.904C95.2303 37.936 94.2863 37.968 93.6463 38V36.992C94.7663 36.992 95.5503 36.752 95.9983 36.272C96.4783 35.792 96.7183 34.88 96.7183 33.536V6.22402C96.7183 4.78402 96.4943 3.72802 96.0463 3.05602C95.6303 2.35202 94.8303 2.00002 93.6463 2.00002V0.992017C94.6703 1.08802 95.6623 1.13602 96.6223 1.13602C97.9343 1.13602 99.1823 1.08802 100.366 0.992017C101.55 0.864017 102.638 0.688016 103.63 0.464015Z" fill="black"/>
<path d="M135.473 12.512C138.289 12.512 140.497 13.344 142.097 15.008C143.697 16.672 144.497 19.392 144.497 23.168H128.705L128.609 22.256H138.449C138.481 20.688 138.385 19.248 138.161 17.936C137.937 16.592 137.585 15.52 137.105 14.72C136.625 13.92 135.985 13.52 135.185 13.52C134.065 13.52 133.105 14.224 132.305 15.632C131.537 17.04 131.073 19.376 130.913 22.64L131.057 22.928C131.025 23.312 130.993 23.712 130.961 24.128C130.961 24.544 130.961 24.976 130.961 25.424C130.961 27.632 131.265 29.424 131.873 30.8C132.513 32.176 133.313 33.184 134.273 33.824C135.233 34.432 136.209 34.736 137.201 34.736C137.873 34.736 138.561 34.64 139.265 34.448C140.001 34.224 140.737 33.84 141.473 33.296C142.209 32.72 142.897 31.92 143.537 30.896L144.401 31.184C144.017 32.4 143.409 33.584 142.577 34.736C141.745 35.888 140.689 36.832 139.409 37.568C138.129 38.304 136.593 38.672 134.801 38.672C132.625 38.672 130.705 38.208 129.041 37.28C127.377 36.352 126.065 34.944 125.105 33.056C124.177 31.168 123.713 28.768 123.713 25.856C123.713 22.88 124.209 20.4 125.201 18.416C126.225 16.432 127.617 14.96 129.377 14C131.169 13.008 133.201 12.512 135.473 12.512Z" fill="black"/>
<path d="M163.508 12.512C164.532 12.512 165.364 12.736 166.004 13.184C166.644 13.6 167.108 14.144 167.396 14.816C167.716 15.488 167.876 16.192 167.876 16.928C167.876 18.112 167.524 19.088 166.82 19.856C166.148 20.592 165.252 20.96 164.132 20.96C163.012 20.96 162.132 20.688 161.492 20.144C160.884 19.568 160.58 18.816 160.58 17.888C160.58 16.992 160.772 16.256 161.156 15.68C161.572 15.072 162.084 14.56 162.692 14.144C162.244 14.016 161.796 14.032 161.348 14.192C160.74 14.288 160.164 14.544 159.62 14.96C159.076 15.344 158.612 15.84 158.228 16.448C157.844 17.024 157.54 17.664 157.316 18.368C157.092 19.04 156.98 19.696 156.98 20.336V33.056C156.98 34.592 157.348 35.632 158.084 36.176C158.852 36.72 159.988 36.992 161.492 36.992V38C160.756 37.968 159.684 37.936 158.276 37.904C156.868 37.84 155.396 37.808 153.86 37.808C152.58 37.808 151.284 37.84 149.972 37.904C148.66 37.936 147.668 37.968 146.996 38V36.992C148.116 36.992 148.9 36.752 149.348 36.272C149.828 35.792 150.068 34.88 150.068 33.536V18.416C150.068 16.976 149.844 15.92 149.396 15.248C148.98 14.544 148.18 14.192 146.996 14.192V13.184C148.02 13.28 149.012 13.328 149.972 13.328C151.316 13.328 152.564 13.28 153.716 13.184C154.9 13.056 155.988 12.88 156.98 12.656V17.12C157.364 16.256 157.876 15.472 158.516 14.768C159.156 14.064 159.892 13.52 160.724 13.136C161.556 12.72 162.484 12.512 163.508 12.512Z" fill="black"/>
<path d="M186.826 12.512C188.17 12.512 189.258 12.688 190.09 13.04C190.922 13.36 191.594 13.808 192.106 14.384C192.618 14.992 192.986 15.792 193.21 16.784C193.434 17.744 193.546 19.024 193.546 20.624V33.536C193.546 34.88 193.754 35.792 194.17 36.272C194.586 36.752 195.306 36.992 196.33 36.992V38C195.754 37.968 194.874 37.936 193.69 37.904C192.538 37.84 191.402 37.808 190.282 37.808C189.13 37.808 187.994 37.84 186.874 37.904C185.754 37.936 184.906 37.968 184.33 38V36.992C185.194 36.992 185.786 36.752 186.106 36.272C186.458 35.792 186.634 34.88 186.634 33.536V18.608C186.634 17.808 186.57 17.12 186.442 16.544C186.314 15.936 186.058 15.472 185.674 15.152C185.322 14.8 184.778 14.624 184.042 14.624C183.21 14.624 182.442 14.864 181.738 15.344C181.034 15.824 180.458 16.496 180.01 17.36C179.594 18.192 179.386 19.136 179.386 20.192V33.536C179.386 34.88 179.562 35.792 179.914 36.272C180.266 36.752 180.858 36.992 181.69 36.992V38C181.178 37.968 180.378 37.936 179.29 37.904C178.234 37.84 177.146 37.808 176.026 37.808C174.81 37.808 173.562 37.84 172.282 37.904C171.002 37.936 170.042 37.968 169.402 38V36.992C170.522 36.992 171.306 36.752 171.754 36.272C172.234 35.792 172.474 34.88 172.474 33.536V18.416C172.474 16.976 172.25 15.92 171.802 15.248C171.386 14.544 170.586 14.192 169.402 14.192V13.184C170.426 13.28 171.418 13.328 172.378 13.328C173.722 13.328 174.97 13.28 176.122 13.184C177.306 13.056 178.394 12.88 179.386 12.656V16.976C180.154 15.376 181.194 14.24 182.506 13.568C183.818 12.864 185.258 12.512 186.826 12.512ZM201.274 12.512C202.618 12.512 203.706 12.688 204.538 13.04C205.37 13.36 206.042 13.808 206.554 14.384C207.066 14.992 207.434 15.792 207.658 16.784C207.882 17.744 207.994 19.024 207.994 20.624V33.536C207.994 34.88 208.218 35.792 208.666 36.272C209.146 36.752 209.946 36.992 211.066 36.992V38C210.458 37.968 209.546 37.936 208.33 37.904C207.114 37.84 205.914 37.808 204.73 37.808C203.578 37.808 202.442 37.84 201.322 37.904C200.202 37.936 199.354 37.968 198.778 38V36.992C199.642 36.992 200.234 36.752 200.554 36.272C200.906 35.792 201.082 34.88 201.082 33.536V18.608C201.082 17.808 201.002 17.12 200.842 16.544C200.714 15.936 200.442 15.472 200.026 15.152C199.642 14.8 199.034 14.624 198.202 14.624C197.37 14.624 196.602 14.88 195.898 15.392C195.194 15.904 194.618 16.592 194.17 17.456C193.754 18.32 193.53 19.28 193.498 20.336L193.258 17.408C194.122 15.488 195.258 14.192 196.666 13.52C198.106 12.848 199.642 12.512 201.274 12.512Z" fill="black"/>
<path d="M225.239 12.512C228.055 12.512 230.263 13.344 231.863 15.008C233.463 16.672 234.263 19.392 234.263 23.168H218.471L218.375 22.256H228.215C228.247 20.688 228.151 19.248 227.927 17.936C227.703 16.592 227.351 15.52 226.871 14.72C226.391 13.92 225.751 13.52 224.951 13.52C223.831 13.52 222.871 14.224 222.071 15.632C221.303 17.04 220.839 19.376 220.679 22.64L220.823 22.928C220.791 23.312 220.759 23.712 220.727 24.128C220.727 24.544 220.727 24.976 220.727 25.424C220.727 27.632 221.031 29.424 221.639 30.8C222.279 32.176 223.079 33.184 224.039 33.824C224.999 34.432 225.975 34.736 226.967 34.736C227.639 34.736 228.327 34.64 229.031 34.448C229.767 34.224 230.503 33.84 231.239 33.296C231.975 32.72 232.663 31.92 233.303 30.896L234.167 31.184C233.783 32.4 233.175 33.584 232.343 34.736C231.511 35.888 230.455 36.832 229.175 37.568C227.895 38.304 226.359 38.672 224.567 38.672C222.391 38.672 220.471 38.208 218.807 37.28C217.143 36.352 215.831 34.944 214.871 33.056C213.943 31.168 213.479 28.768 213.479 25.856C213.479 22.88 213.975 20.4 214.967 18.416C215.991 16.432 217.383 14.96 219.143 14C220.935 13.008 222.967 12.512 225.239 12.512Z" fill="black"/>
</svg>
