<svg width="29" height="25" viewBox="0 0 29 25" fill="none" xmlns="http://www.w3.org/2000/svg">
<path d="M7.9025 5.20833C7.975 6.13542 8.15625 7.04167 8.44625 7.90625L6.99625 9.15625C6.50083 7.90625 6.18667 6.58333 6.07792 5.20833H7.9025ZM19.8167 17.7292C20.8438 17.9792 21.895 18.1354 22.9583 18.1979V19.75C21.3633 19.6562 19.8288 19.3854 18.3667 18.9687L19.8167 17.7292ZM9.0625 3.125H4.83333C4.16875 3.125 3.625 3.59375 3.625 4.16667C3.625 13.9479 12.8204 21.875 24.1667 21.875C24.8313 21.875 25.375 21.4062 25.375 20.8333V17.1979C25.375 16.625 24.8313 16.1562 24.1667 16.1562C22.6683 16.1562 21.2063 15.9479 19.8529 15.5625C19.7321 15.5208 19.5992 15.5104 19.4783 15.5104C19.1642 15.5104 18.8621 15.6146 18.6204 15.8125L15.9621 18.1042C12.5425 16.5937 9.73917 14.1875 7.99917 11.2396L10.6575 8.94792C10.9958 8.65625 11.0925 8.25 10.9596 7.88542C10.5125 6.71875 10.2708 5.46875 10.2708 4.16667C10.2708 3.59375 9.72708 3.125 9.0625 3.125Z" fill="url(#paint0_linear_34_54)"/>
<defs>
<linearGradient id="paint0_linear_34_54" x1="14.5" y1="3.125" x2="14.5" y2="21.875" gradientUnits="userSpaceOnUse">
<stop stop-color="#E60D0D"/>
<stop offset="1" stop-color="#DD6F0A"/>
</linearGradient>
</defs>
</svg>
